<svg width="12" height="11" viewBox="0 0 12 11" fill="none" xmlns="http://www.w3.org/2000/svg">
<path d="M5.52448 0.463533C5.67415 0.0028778 6.32586 0.00287855 6.47553 0.463534L7.45935 3.4914C7.52628 3.69741 7.71826 3.83689 7.93488 3.83689H11.1186C11.6029 3.83689 11.8043 4.4567 11.4125 4.7414L8.8368 6.61272C8.66155 6.74004 8.58822 6.96573 8.65516 7.17174L9.63898 10.1996C9.78865 10.6603 9.26141 11.0433 8.86955 10.7586L6.2939 8.8873C6.11865 8.75997 5.88136 8.75997 5.70611 8.8873L3.13046 10.7586C2.7386 11.0433 2.21136 10.6603 2.36104 10.1996L3.34485 7.17174C3.41179 6.96573 3.33846 6.74004 3.16321 6.61272L0.587559 4.7414C0.195702 4.4567 0.39709 3.83689 0.881452 3.83689H4.06514C4.28175 3.83689 4.47373 3.69741 4.54067 3.4914L5.52448 0.463533Z" fill="#FE395C"/>
</svg>
